<svg width="1245" height="780" viewBox="0 0 1245 780" fill="none" xmlns="http://www.w3.org/2000/svg">
<path d="M903.703 418.217V326.414L975.632 306.653L956.314 418.217H903.703Z" fill="#E4AD7A"/>
<path d="M874.982 301.943C870.347 295.084 892.088 250.092 903.537 228.453L951.543 221.512L992.513 243.151V300.31C980.374 316.232 950.633 348.16 928.782 348.486C901.468 348.895 880.776 310.517 874.982 301.943Z" fill="#FFCFA3"/>
<path d="M978.439 240.109C951.927 229.279 944.48 214.265 944.071 208.112L972.302 185.961C957.982 175.295 939.161 141.658 972.302 131.813C997.233 124.406 1002.17 150.032 1001.54 166.191C1004.01 145.904 1030.91 119.548 1057.81 145.35C1080.9 167.494 1053.72 208.112 1033.26 198.267C1043.97 206.471 1062.72 232.19 1041.86 242.98C1010.76 259.061 1001.9 225.341 1001.35 206.471L978.439 240.109Z" fill="white"/>
<path d="M881.774 207.124C885.061 199.536 892.183 203.962 895.334 207.124C896.703 200.801 906.31 192.929 913.895 192.929C923.663 192.929 931.564 197.328 935.263 202.826C934.989 198.29 936.249 189.218 943.481 189.218C950.713 189.218 946.913 198.355 951.699 202.826C956.485 207.297 977.09 202.072 982.517 222.208C984.161 217.672 990.9 211.816 1004.71 224.682C1018.51 237.548 1010.46 251.211 1004.71 256.435C1018.51 269.631 1008.54 278.703 1001.83 281.589C998.953 288.187 1014.57 305.919 991.557 305.919C972.935 305.919 981.558 288.875 987.448 284.476C962.465 277.878 969.779 263.857 977.175 263.857C967.313 258.579 965.944 244.338 966.492 237.878C952.028 251.404 934.608 235.578 932.965 226.505C919.816 250.836 907.25 242.588 899.443 240.939C893.197 239.619 894.101 230.767 895.334 226.505C878.486 226.093 877.665 216.608 881.774 207.124Z" fill="#034031"/>
<path d="M895.091 290.769C896.422 284.91 915.95 260.8 918.382 261.881C920.814 262.962 905.134 298.634 902.577 299.314C900.021 299.993 893.76 296.628 895.091 290.769Z" fill="#E4AD7A"/>
<path d="M578.204 155.161L581.732 181.033L627.596 169.273L622.5 146.145L627.596 114.001L616.62 92.8325L565.66 133.601L578.204 155.161Z" fill="#FFCFA3"/>
<path d="M890.336 351.993C917.953 362.854 918.008 382.575 914.583 391.078L942.94 394.781L951.159 368.45C957.077 361.867 973.351 362.69 980.748 363.924L995.132 386.141C1033.76 391.078 1041.16 390.255 1108.97 436.334C1184.89 487.924 1229.66 684.147 1245 772.466C1221.03 775.483 1169.79 781.188 1156.64 779.872C1143.49 778.555 1108.7 710.478 1092.94 676.605C1098.2 715.114 1085.72 760.929 1077.22 774.917H666C659.425 573.156 685.537 495.579 698.414 488.173C544.877 438.474 548.96 259.011 570.193 175.493L635.537 159.859C651.153 327.719 781.841 365.158 884.171 365.158L890.336 351.993Z" fill="white"/>
<path d="M883.966 365.274C859.145 421.829 809.826 594.16 813.797 774.917" stroke="#BBDAD2"/>
<path d="M550.102 153.253C509.609 90.3214 505.796 35.5295 508.951 16H644.751C642.447 73.0317 663.27 103.405 673.969 111.462C667.385 125.557 588.648 145.195 550.102 153.253Z" fill="#F3D5FE"/>
<ellipse cx="951.809" cy="441.823" rx="2.87683" ry="3.69878" transform="rotate(15.6598 951.809 441.823)" fill="#BBDAD2"/>
<ellipse cx="936.191" cy="503.469" rx="2.87683" ry="3.69878" transform="rotate(15.6598 936.191 503.469)" fill="#BBDAD2"/>
<ellipse cx="919.45" cy="573.308" rx="2.87683" ry="3.69878" transform="rotate(18.2629 919.45 573.308)" fill="#BBDAD2"/>
<ellipse cx="911.661" cy="639.231" rx="2.87683" ry="3.69878" transform="rotate(11.8696 911.661 639.231)" fill="#BBDAD2"/>
<ellipse cx="905.512" cy="707.988" rx="2.87683" ry="3.69878" transform="rotate(8.93595 905.512 707.988)" fill="#BBDAD2"/>
<ellipse cx="880.368" cy="430.133" rx="2.87683" ry="3.69878" transform="rotate(15.6598 880.368 430.133)" fill="#BBDAD2"/>
<ellipse cx="864.751" cy="491.78" rx="2.87683" ry="3.69878" transform="rotate(15.6598 864.751 491.78)" fill="#BBDAD2"/>
<ellipse cx="848.615" cy="558.385" rx="2.87683" ry="3.69878" transform="rotate(18.2629 848.615 558.385)" fill="#BBDAD2"/>
<ellipse cx="839.605" cy="632.289" rx="2.87683" ry="3.69878" transform="rotate(11.8696 839.605 632.289)" fill="#BBDAD2"/>
<ellipse cx="833.194" cy="704.743" rx="2.87683" ry="3.69878" transform="rotate(8.93595 833.194 704.743)" fill="#BBDAD2"/>
<rect x="324.578" y="30.896" width="135.633" height="136.417" fill="#51C6A3"/>
<rect x="127.009" y="30.1121" width="135.633" height="136.417" fill="#51C6A3"/>
<path d="M0 20.312H1169.74" stroke="white" stroke-width="39"/>
</svg>
