<svg width="693" height="670" viewBox="0 0 693 670" fill="none" xmlns="http://www.w3.org/2000/svg">
<path d="M378.328 360.702V277.917L446.964 260.098L428.531 360.702H378.328Z" fill="#E4AD7A"/>
<path d="M350.923 255.85C346.5 249.665 367.245 209.093 378.171 189.581L423.978 183.322L463.073 202.835V254.378C451.49 268.736 423.11 297.527 402.259 297.821C376.196 298.189 356.451 263.582 350.923 255.85Z" fill="#FFCFA3"/>
<path d="M449.643 200.091C424.345 190.326 417.239 176.787 416.849 171.238L443.787 151.263C430.123 141.645 412.164 111.313 443.787 102.435C467.577 95.7561 472.287 118.864 471.682 133.436C474.039 115.142 499.711 91.3753 525.384 114.642C547.417 134.611 521.48 171.238 501.959 162.36C512.17 169.759 530.069 192.95 510.158 202.681C480.486 217.181 472.027 186.774 471.507 169.759L449.643 200.091Z" fill="white"/>
<path d="M357.403 170.347C360.54 163.505 367.336 167.496 370.343 170.347C371.65 164.645 380.816 157.547 388.054 157.547C397.374 157.547 404.915 161.513 408.443 166.471C408.182 162.381 409.384 154.2 416.285 154.2C423.186 154.2 419.56 162.439 424.127 166.471C428.694 170.503 448.355 165.792 453.534 183.949C455.103 179.858 461.533 174.578 474.707 186.18C487.882 197.782 480.197 210.103 474.707 214.813C487.882 226.713 478.367 234.894 471.963 237.497C469.218 243.446 484.118 259.436 462.16 259.436C444.391 259.436 452.619 244.066 458.239 240.1C434.4 234.15 441.379 221.507 448.437 221.507C439.027 216.747 437.72 203.905 438.243 198.079C424.441 210.276 407.819 196.005 406.251 187.824C393.704 209.764 381.713 202.327 374.264 200.839C368.304 199.649 369.166 191.667 370.343 187.824C354.267 187.452 353.482 178.9 357.403 170.347Z" fill="#034031"/>
<path d="M370.111 245.774C371.381 240.491 390.015 218.75 392.336 219.724C394.656 220.699 379.694 252.867 377.255 253.479C374.815 254.092 368.841 251.058 370.111 245.774Z" fill="#E4AD7A"/>
<path d="M67.7318 123.489L71.0983 146.819L114.863 136.215L110 115.359L114.863 86.3727L104.389 67.2842L55.762 104.047L67.7318 123.489Z" fill="#FFCFA3"/>
<path d="M359.495 312.959C335.81 363.958 288.749 519.358 292.539 682.357" stroke="#D3EDE7"/>
<path d="M40.917 121.768C2.27753 65.0197 -1.36128 15.6108 1.64924 -2H131.233C129.034 49.4286 148.903 76.8177 159.113 84.0838C152.83 96.7931 77.6977 114.502 40.917 121.768Z" fill="#F3D5FE"/>
<ellipse rx="2.7344" ry="3.34991" transform="matrix(0.966655 0.256084 -0.28439 0.958709 424.232 381.988)" fill="#D3EDE7"/>
<ellipse rx="2.7344" ry="3.34991" transform="matrix(0.966655 0.256084 -0.28439 0.958709 409.33 437.578)" fill="#D3EDE7"/>
<ellipse rx="2.73066" ry="3.35494" transform="matrix(0.954655 0.297715 -0.329676 0.944094 393.355 500.555)" fill="#D3EDE7"/>
<ellipse rx="2.7389" ry="3.34383" transform="matrix(0.980839 0.194819 -0.217103 0.976149 385.923 560.002)" fill="#D3EDE7"/>
<ellipse rx="2.74157" ry="3.3402" transform="matrix(0.989139 0.14698 -0.16413 0.986439 380.055 622.003)" fill="#D3EDE7"/>
<ellipse rx="2.7344" ry="3.34991" transform="matrix(0.966655 0.256084 -0.28439 0.958709 356.062 371.446)" fill="#D3EDE7"/>
<ellipse rx="2.7344" ry="3.34991" transform="matrix(0.966655 0.256084 -0.28439 0.958709 341.16 427.036)" fill="#D3EDE7"/>
<ellipse rx="2.73066" ry="3.35494" transform="matrix(0.954655 0.297715 -0.329676 0.944094 325.763 487.098)" fill="#D3EDE7"/>
<ellipse rx="2.7389" ry="3.34383" transform="matrix(0.980839 0.194819 -0.217103 0.976149 317.165 553.742)" fill="#D3EDE7"/>
<ellipse rx="2.74157" ry="3.3402" transform="matrix(0.989139 0.14698 -0.16413 0.986439 311.048 619.077)" fill="#D3EDE7"/>
<path fill-rule="evenodd" clip-rule="evenodd" d="M388.71 336.228C391.978 328.561 391.926 310.778 365.573 300.983L359.691 312.855C315.954 312.855 266.788 306.082 224.493 285H56.4554C69.7011 343.907 105.131 400.136 182.439 423.785C170.151 430.463 145.234 500.418 151.508 682.357H543.904C552.009 669.743 563.924 628.429 558.904 593.704C573.936 624.249 607.139 685.638 619.688 686.825C632.236 688.012 681.125 682.868 704 680.147C689.36 600.505 646.641 423.56 574.198 377.039C512.378 337.339 503.178 336.246 470.333 332.345C468.8 332.163 467.216 331.975 465.572 331.776L451.847 311.742C444.788 310.629 429.259 309.887 423.612 315.823L415.769 339.567L388.71 336.228ZM50.2852 206H143.909C132.998 184.278 125.461 158.42 122.44 127.725L60.0877 141.823C55.3658 159.375 51.5328 181.626 50.2852 206Z" fill="white"/>
</svg>
