<svg width="1177" height="670" viewBox="0 0 1177 670" fill="none" xmlns="http://www.w3.org/2000/svg">
<path d="M862.328 360.702V277.917L930.964 260.098L912.531 360.702H862.328Z" fill="#E4AD7A"/>
<path d="M834.923 255.85C830.5 249.665 851.245 209.093 862.171 189.581L907.978 183.322L947.073 202.835V254.378C935.489 268.736 907.11 297.527 886.259 297.821C860.196 298.189 840.451 263.582 834.923 255.85Z" fill="#FFCFA3"/>
<path d="M933.643 200.091C908.345 190.326 901.239 176.787 900.849 171.238L927.787 151.263C914.123 141.645 896.164 111.313 927.787 102.435C951.577 95.7561 956.287 118.864 955.682 133.436C958.039 115.142 983.711 91.3753 1009.38 114.642C1031.42 134.611 1005.48 171.238 985.959 162.36C996.17 169.759 1014.07 192.95 994.158 202.681C964.486 217.181 956.027 186.774 955.507 169.759L933.643 200.091Z" fill="white"/>
<path d="M841.403 170.347C844.54 163.505 851.336 167.496 854.342 170.347C855.649 164.645 864.816 157.547 872.054 157.547C881.374 157.547 888.914 161.513 892.443 166.471C892.182 162.381 893.384 154.2 900.285 154.2C907.186 154.2 903.56 162.439 908.127 166.471C912.694 170.503 932.355 165.792 937.534 183.949C939.103 179.858 945.533 174.578 958.707 186.18C971.882 197.782 964.197 210.103 958.707 214.813C971.882 226.713 962.367 234.894 955.963 237.497C953.218 243.446 968.118 259.436 946.16 259.436C928.391 259.436 936.619 244.066 942.239 240.1C918.4 234.15 925.379 221.507 932.437 221.507C923.027 216.747 921.72 203.905 922.243 198.079C908.441 210.276 891.819 196.005 890.251 187.824C877.704 209.764 865.713 202.327 858.263 200.839C852.304 199.649 853.166 191.667 854.342 187.824C838.267 187.452 837.482 178.9 841.403 170.347Z" fill="#034031"/>
<path d="M854.111 245.774C855.381 240.491 874.015 218.75 876.336 219.724C878.656 220.699 863.694 252.867 861.255 253.479C858.815 254.092 852.841 251.058 854.111 245.774Z" fill="#E4AD7A"/>
<path d="M551.732 123.489L555.098 146.819L598.863 136.215L594 115.359L598.863 86.3727L588.389 67.2842L539.762 104.047L551.732 123.489Z" fill="#FFCFA3"/>
<path d="M843.495 312.959C819.81 363.958 772.749 519.358 776.539 682.357" stroke="#D3EDE7"/>
<path d="M524.917 121.768C486.277 65.0197 482.639 15.6108 485.649 -2H615.233C613.034 49.4286 632.903 76.8177 643.113 84.0838C636.83 96.7931 561.698 114.502 524.917 121.768Z" fill="#F3D5FE"/>
<ellipse rx="2.7344" ry="3.34991" transform="matrix(0.966655 0.256084 -0.28439 0.958709 908.232 381.988)" fill="#D3EDE7"/>
<ellipse rx="2.7344" ry="3.34991" transform="matrix(0.966655 0.256084 -0.28439 0.958709 893.33 437.578)" fill="#D3EDE7"/>
<ellipse rx="2.73066" ry="3.35494" transform="matrix(0.954655 0.297715 -0.329676 0.944094 877.355 500.555)" fill="#D3EDE7"/>
<ellipse rx="2.7389" ry="3.34383" transform="matrix(0.980839 0.194819 -0.217103 0.976149 869.923 560.002)" fill="#D3EDE7"/>
<ellipse rx="2.74157" ry="3.3402" transform="matrix(0.989139 0.14698 -0.16413 0.986439 864.054 622.003)" fill="#D3EDE7"/>
<ellipse rx="2.7344" ry="3.34991" transform="matrix(0.966655 0.256084 -0.28439 0.958709 840.062 371.446)" fill="#D3EDE7"/>
<ellipse rx="2.7344" ry="3.34991" transform="matrix(0.966655 0.256084 -0.28439 0.958709 825.16 427.036)" fill="#D3EDE7"/>
<ellipse rx="2.73066" ry="3.35494" transform="matrix(0.954655 0.297715 -0.329676 0.944094 809.762 487.098)" fill="#D3EDE7"/>
<ellipse rx="2.7389" ry="3.34383" transform="matrix(0.980839 0.194819 -0.217103 0.976149 801.165 553.742)" fill="#D3EDE7"/>
<ellipse rx="2.74157" ry="3.3402" transform="matrix(0.989139 0.14698 -0.16413 0.986439 795.048 619.077)" fill="#D3EDE7"/>
<path fill-rule="evenodd" clip-rule="evenodd" d="M872.71 336.228C875.978 328.561 875.926 310.778 849.573 300.983L843.691 312.855C799.954 312.855 750.788 306.082 708.493 285H540.455C553.701 343.907 589.131 400.136 666.439 423.785C654.151 430.463 629.234 500.418 635.508 682.357H1027.9C1036.01 669.743 1047.92 628.429 1042.9 593.704C1057.94 624.249 1091.14 685.638 1103.69 686.825C1116.24 688.012 1165.12 682.868 1188 680.147C1173.36 600.505 1130.64 423.56 1058.2 377.039C996.378 337.339 987.178 336.246 954.333 332.345C952.8 332.163 951.216 331.975 949.572 331.776L935.847 311.742C928.788 310.629 913.259 309.887 907.612 315.823L899.769 339.567L872.71 336.228ZM534.285 206H627.909C616.998 184.278 609.461 158.42 606.44 127.725L544.088 141.823C539.366 159.375 535.533 181.626 534.285 206Z" fill="white"/>
</svg>
