<svg width="650" height="727" viewBox="0 0 650 727" fill="none" xmlns="http://www.w3.org/2000/svg">
<path d="M243.989 561.854C244.17 564.776 217.02 542.895 236.929 519.727C256.839 496.559 268.311 486.517 260.055 467.608C260.055 467.608 289.804 488.728 269.592 513.369C250.638 536.512 242.853 543.194 243.989 561.854Z" fill="white"/>
<path d="M261.458 605.042C261.616 607.49 237.358 589.17 255.16 569.783C272.949 550.396 283.2 541.984 275.819 526.162C275.819 526.162 302.4 543.842 284.343 564.472C267.392 583.821 260.437 589.422 261.458 605.042Z" fill="white"/>
<path d="M148.63 646.064C148.63 646.064 145.517 627.239 129.588 629.007C113.658 630.774 115.968 646.954 115.968 646.954C115.968 646.954 104.003 628.994 87.7087 641.442C71.4265 653.889 79.136 669.525 79.136 669.525C79.136 669.525 59.4368 661.874 53.0285 670.427C36.1869 692.874 64.1305 705.173 64.1305 705.173L132.372 709.017L148.63 646.064Z" fill="#51C6A3"/>
<path d="M131.849 707.082C131.849 707.082 114.357 695.148 112.798 679.207C110.303 653.667 136.159 646.901 150.803 636.366C165.447 625.83 199.045 579.581 259.533 579.581C320.021 579.581 380.205 641.309 362.481 701.664C353.229 733.196 131.849 707.082 131.849 707.082Z" fill="#E6B586"/>
<path d="M170.12 709.017C170.12 709.017 164.518 701.298 170.12 690.508C175.722 679.718 176.13 681.011 190.466 667.635C204.801 654.248 206.48 637.056 222.711 643.731C238.942 650.407 225.77 672.496 222.219 680.489C218.657 688.482 216.269 709.017 216.269 709.017H170.12Z" fill="#E4AD7A"/>
<path d="M230.63 706.436C230.63 706.436 266.469 672.081 273.603 677.818C280.725 683.554 248.471 709.017 248.471 709.017L230.63 706.436Z" fill="#D4EAC3"/>
<path d="M271.058 707.99C271.058 707.99 284.613 693.518 279.462 689.927C274.311 686.337 248.63 706.486 248.63 706.486L271.058 707.99Z" fill="#51C6A3"/>
<path d="M397.808 582.592C397.808 582.592 276.032 602.054 292.089 652.626C308.134 703.211 399.476 622.29 406.123 598.354C406.123 598.354 426.94 609.216 428.523 593.954C430.118 578.692 413.415 583.105 413.415 583.105C413.415 583.105 420.841 563.405 410.396 562.168C399.95 560.931 397.808 582.592 397.808 582.592Z" fill="#E4AD7A"/>
<path d="M329.904 708.437C329.904 708.437 321.91 699.682 330.906 691.3C339.902 682.917 355.963 687.345 355.963 687.345C355.963 687.345 354.093 669.958 371.804 665.519C389.515 661.079 387.792 680.02 387.792 680.02C387.792 680.02 409.292 667.396 413.851 684.559C418.41 701.722 401.469 713.126 401.469 713.126L329.904 708.437Z" fill="#D4EAC3"/>
<path d="M0.630127 703.77H448.63L437.632 726.369L5.81482 725.404L0.630127 703.77Z" fill="#BBDAD2"/>
<path d="M377.648 70.5396C386.983 71.9369 438.838 92.8108 438.838 92.8108L431.456 131.682C431.456 131.682 405.78 126.18 400.164 129.344C388.566 135.892 337.557 165.462 335.139 142.345C334.058 132.078 355.71 138.591 360.071 118.834C361.234 113.563 358.38 105.499 348.781 104.864C338.447 104.185 330.052 109.419 326.948 119.797C322.506 134.619 335.623 148.667 328.744 146.163C286.265 130.702 296.799 88.6041 299.645 83.7069C302.492 78.8097 325.345 66.5782 330.339 65.1617C341.019 62.1319 361.206 68.0788 377.648 70.5396Z" fill="#FFCFA3"/>
<path d="M451.574 80.6045L435.318 79.1716L425.419 145.486L445.989 148.403L451.574 80.6045Z" fill="white"/>
<path d="M455.347 69.4379C452.9 69.0431 450.585 70.7941 450.224 73.3007C448.107 88.0108 442.873 135.5 441.126 151.461C440.787 154.494 442.727 157.251 445.626 157.912L754.949 228.279L785.777 122.382L455.347 69.4379Z" fill="#034031"/>
<path d="M531.702 154.453C535.015 155.159 538.309 152.979 539.058 149.584C539.808 146.188 537.729 142.863 534.416 142.156C531.103 141.45 527.809 143.63 527.06 147.025C526.31 150.421 528.389 153.746 531.702 154.453Z" fill="white"/>
<path d="M471.353 141.586C474.667 142.292 477.96 140.113 478.71 136.717C479.459 133.322 477.381 129.996 474.068 129.29C470.754 128.584 467.461 130.763 466.711 134.159C465.962 137.554 468.04 140.88 471.353 141.586Z" fill="white"/>
<path d="M500.127 147.72C503.44 148.427 506.734 146.247 507.483 142.852C508.233 139.456 506.154 136.131 502.841 135.424C499.527 134.718 496.234 136.898 495.484 140.293C494.735 143.689 496.813 147.014 500.127 147.72Z" fill="white"/>
<path d="M330.635 144.754C337.641 147.304 345.208 144.185 347.537 137.787C349.865 131.39 346.073 124.136 339.067 121.586C332.061 119.036 324.493 122.155 322.165 128.553C319.836 134.95 323.628 142.204 330.635 144.754Z" fill="#D3EDE7"/>
<path d="M313.691 150.789L315.658 130.19L351.261 142.886L339.215 159.966L313.691 150.789Z" fill="#BBDAD2"/>
<path d="M62.9212 359.914C22.0074 289.502 117.217 79.9206 336.22 159.631C538.16 233.131 483.934 465.496 402.821 486.338C398.327 487.501 76.3192 382.986 62.9212 359.914Z" fill="#D3EDE7"/>
<path d="M402.722 486.622C483.845 465.73 538.159 233.131 336.242 159.639C297.234 196.794 221.693 303.069 231.595 430.927C315.85 460.421 400.434 487.215 402.722 486.622Z" fill="#BBDAD2"/>
</svg>
