<svg width="578" height="132" viewBox="0 0 578 132" fill="none" xmlns="http://www.w3.org/2000/svg">
<rect x="0.294464" y="43.49" width="55" height="55" fill="#F3D5FE"/>
<rect x="74.8468" y="43.49" width="55" height="55" fill="#F3D5FE"/>
<rect x="149.624" y="43.49" width="55" height="55" fill="#F3D5FE"/>
<rect x="223.855" y="43.49" width="55" height="55" fill="#F3D5FE"/>
<rect x="298.45" y="43.49" width="55" height="55" fill="#F3D5FE"/>
<rect x="373.045" y="43.49" width="55" height="55" fill="#F3D5FE"/>
<rect x="447.64" y="43.49" width="55" height="55" fill="#F3D5FE"/>
<rect x="522.235" y="43.49" width="55" height="55" fill="#F3D5FE"/>
<path d="M27.798 122.085C26.862 122.085 26.034 121.827 25.314 121.311C24.594 120.783 24.03 120.033 23.622 119.061C23.214 118.077 23.01 116.913 23.01 115.569C23.01 114.213 23.214 113.049 23.622 112.077C24.03 111.105 24.594 110.361 25.314 109.845C26.034 109.317 26.862 109.053 27.798 109.053C28.734 109.053 29.562 109.317 30.282 109.845C31.002 110.361 31.566 111.105 31.974 112.077C32.382 113.049 32.586 114.213 32.586 115.569C32.586 116.913 32.382 118.077 31.974 119.061C31.566 120.033 31.002 120.783 30.282 121.311C29.562 121.827 28.734 122.085 27.798 122.085ZM24.306 115.569C24.306 116.481 24.408 117.297 24.612 118.017C24.828 118.725 25.122 119.313 25.494 119.781L29.202 110.583C28.77 110.331 28.302 110.205 27.798 110.205C27.114 110.205 26.508 110.427 25.98 110.871C25.464 111.303 25.056 111.921 24.756 112.725C24.456 113.517 24.306 114.465 24.306 115.569ZM27.798 120.951C28.482 120.951 29.088 120.735 29.616 120.303C30.144 119.859 30.552 119.235 30.84 118.431C31.14 117.615 31.29 116.661 31.29 115.569C31.29 114.657 31.182 113.847 30.966 113.139C30.762 112.419 30.474 111.831 30.102 111.375L26.394 120.573C26.826 120.825 27.294 120.951 27.798 120.951Z" fill="#CCCCCC"/>
<path d="M98.2643 121.869V120.717H101.594V110.763L98.4443 111.393V110.475L101.972 109.269H102.854V120.717H106.364V121.869H98.2643Z" fill="#CCCCCC"/>
<path d="M173.113 121.869V120.897C174.457 119.829 175.615 118.851 176.587 117.963C177.571 117.075 178.327 116.223 178.855 115.407C179.395 114.579 179.665 113.721 179.665 112.833C179.665 112.017 179.431 111.375 178.963 110.907C178.507 110.439 177.889 110.205 177.109 110.205C176.521 110.205 176.023 110.331 175.615 110.583C175.207 110.835 174.901 111.171 174.697 111.591C174.493 111.999 174.391 112.455 174.391 112.959H173.131C173.131 112.155 173.305 111.465 173.653 110.889C174.001 110.301 174.475 109.851 175.075 109.539C175.675 109.215 176.353 109.053 177.109 109.053C178.321 109.053 179.263 109.395 179.935 110.079C180.619 110.763 180.961 111.675 180.961 112.815C180.961 113.583 180.793 114.321 180.457 115.029C180.133 115.725 179.689 116.403 179.125 117.063C178.573 117.711 177.949 118.341 177.253 118.953C176.569 119.553 175.861 120.141 175.129 120.717H181.303V121.869H173.113Z" fill="#CCCCCC"/>
<path d="M251.674 122.085C250.87 122.085 250.138 121.935 249.478 121.635C248.83 121.323 248.308 120.879 247.912 120.303C247.528 119.715 247.318 119.007 247.282 118.179H248.578C248.59 118.683 248.722 119.145 248.974 119.565C249.226 119.973 249.58 120.303 250.036 120.555C250.492 120.807 251.038 120.933 251.674 120.933C252.622 120.933 253.342 120.687 253.834 120.195C254.338 119.703 254.59 119.037 254.59 118.197C254.59 117.621 254.446 117.147 254.158 116.775C253.87 116.391 253.48 116.109 252.988 115.929C252.508 115.737 251.968 115.641 251.368 115.641H250.288V114.489H251.242C252.118 114.489 252.808 114.297 253.312 113.913C253.816 113.517 254.068 112.971 254.068 112.275C254.068 111.675 253.864 111.183 253.456 110.799C253.048 110.403 252.454 110.205 251.674 110.205C250.942 110.205 250.342 110.415 249.874 110.835C249.418 111.243 249.16 111.783 249.1 112.455H247.804C247.84 111.795 248.02 111.213 248.344 110.709C248.68 110.193 249.13 109.791 249.694 109.503C250.258 109.203 250.918 109.053 251.674 109.053C252.466 109.053 253.138 109.197 253.69 109.485C254.242 109.773 254.656 110.157 254.932 110.637C255.22 111.117 255.364 111.639 255.364 112.203C255.364 112.827 255.172 113.385 254.788 113.877C254.404 114.357 253.936 114.699 253.384 114.903V115.011C254.116 115.227 254.716 115.593 255.184 116.109C255.652 116.613 255.886 117.303 255.886 118.179C255.886 118.911 255.712 119.571 255.364 120.159C255.028 120.747 254.548 121.215 253.924 121.563C253.3 121.911 252.55 122.085 251.674 122.085Z" fill="#CCCCCC"/>
<path d="M400.495 122.085C399.643 122.085 398.911 121.923 398.299 121.599C397.699 121.275 397.219 120.837 396.859 120.285C396.511 119.733 396.289 119.115 396.193 118.431H397.489C397.609 119.163 397.939 119.763 398.479 120.231C399.019 120.699 399.697 120.933 400.513 120.933C401.161 120.933 401.713 120.789 402.169 120.501C402.625 120.213 402.973 119.823 403.213 119.331C403.465 118.827 403.591 118.263 403.591 117.639C403.591 116.643 403.315 115.863 402.763 115.299C402.211 114.723 401.485 114.435 400.585 114.435C399.865 114.435 399.247 114.597 398.731 114.921C398.227 115.245 397.819 115.659 397.507 116.163H396.319L397.399 109.269H404.041V110.421H398.389L397.687 114.489H397.759C398.047 114.177 398.443 113.901 398.947 113.661C399.463 113.409 400.039 113.283 400.675 113.283C401.479 113.283 402.193 113.457 402.817 113.805C403.441 114.141 403.927 114.633 404.275 115.281C404.635 115.929 404.815 116.709 404.815 117.621C404.815 118.413 404.647 119.151 404.311 119.835C403.987 120.507 403.501 121.053 402.853 121.473C402.217 121.881 401.431 122.085 400.495 122.085Z" fill="#CCCCCC"/>
<path d="M547.355 121.869L552.359 110.421H545.303V109.269H553.655V110.313L548.705 121.869H547.355Z" fill="#CCCCCC"/>
<path d="M475.257 122.085C474.213 122.085 473.343 121.833 472.647 121.329C471.963 120.813 471.453 120.105 471.117 119.205C470.781 118.305 470.613 117.267 470.613 116.091C470.613 114.711 470.799 113.493 471.171 112.437C471.555 111.381 472.107 110.553 472.827 109.953C473.547 109.353 474.417 109.053 475.437 109.053C476.217 109.053 476.889 109.209 477.453 109.521C478.017 109.821 478.461 110.229 478.785 110.745C479.109 111.249 479.301 111.819 479.361 112.455H478.155C478.035 111.771 477.735 111.225 477.255 110.817C476.775 110.409 476.169 110.205 475.437 110.205C474.801 110.205 474.213 110.409 473.673 110.817C473.145 111.213 472.713 111.831 472.377 112.671C472.041 113.511 471.849 114.585 471.801 115.893H471.873C472.173 115.329 472.617 114.843 473.205 114.435C473.805 114.027 474.537 113.823 475.401 113.823C476.157 113.823 476.835 114.003 477.435 114.363C478.047 114.723 478.527 115.209 478.875 115.821C479.235 116.421 479.415 117.105 479.415 117.873C479.415 118.629 479.241 119.331 478.893 119.979C478.545 120.615 478.059 121.125 477.435 121.509C476.823 121.893 476.097 122.085 475.257 122.085ZM475.167 120.933C475.755 120.933 476.271 120.801 476.715 120.537C477.159 120.273 477.501 119.919 477.741 119.475C477.993 119.019 478.119 118.509 478.119 117.945C478.119 117.381 477.993 116.877 477.741 116.433C477.501 115.977 477.159 115.623 476.715 115.371C476.271 115.107 475.755 114.975 475.167 114.975C474.579 114.975 474.063 115.107 473.619 115.371C473.175 115.623 472.827 115.977 472.575 116.433C472.323 116.877 472.197 117.387 472.197 117.963C472.197 118.527 472.323 119.037 472.575 119.493C472.827 119.937 473.175 120.291 473.619 120.555C474.063 120.807 474.579 120.933 475.167 120.933Z" fill="#CCCCCC"/>
<path d="M327.642 121.869V118.827H321.558V117.873L327.39 109.269H328.884V117.675H330.81V118.827H328.884V121.869H327.642ZM322.98 117.675H327.696V110.781L322.98 117.675Z" fill="#CCCCCC"/>
<path d="M22.1374 79.49V62.69H28.3534C29.6974 62.69 30.8094 62.914 31.6894 63.362C32.5694 63.81 33.2254 64.426 33.6574 65.21C34.0894 65.994 34.3054 66.874 34.3054 67.85C34.3054 68.778 34.0974 69.634 33.6814 70.418C33.2654 71.186 32.6174 71.81 31.7374 72.29C30.8574 72.754 29.7294 72.986 28.3534 72.986H25.2094V79.49H22.1374ZM25.2094 70.49H28.1614C29.2334 70.49 30.0014 70.258 30.4654 69.794C30.9454 69.314 31.1854 68.666 31.1854 67.85C31.1854 67.018 30.9454 66.37 30.4654 65.906C30.0014 65.426 29.2334 65.186 28.1614 65.186H25.2094V70.49Z" fill="#001611"/>
<path d="M94.4847 79.49L100.629 62.69H104.085L110.229 79.49H106.965L105.621 75.602H99.0687L97.7007 79.49H94.4847ZM99.9087 73.202H104.781L102.333 66.218L99.9087 73.202Z" fill="#001611"/>
<path d="M177.331 79.778C176.099 79.778 175.011 79.57 174.067 79.154C173.123 78.722 172.379 78.114 171.835 77.33C171.291 76.53 171.011 75.562 170.995 74.426H174.235C174.267 75.21 174.547 75.874 175.075 76.418C175.619 76.946 176.363 77.21 177.307 77.21C178.123 77.21 178.771 77.018 179.251 76.634C179.731 76.234 179.971 75.706 179.971 75.05C179.971 74.362 179.755 73.826 179.323 73.442C178.907 73.058 178.347 72.746 177.643 72.506C176.939 72.266 176.187 72.01 175.387 71.738C174.091 71.29 173.099 70.714 172.411 70.01C171.739 69.306 171.403 68.37 171.403 67.202C171.387 66.21 171.619 65.362 172.099 64.658C172.595 63.938 173.267 63.386 174.115 63.002C174.963 62.602 175.939 62.402 177.043 62.402C178.163 62.402 179.147 62.602 179.995 63.002C180.859 63.402 181.531 63.962 182.011 64.682C182.507 65.402 182.771 66.258 182.803 67.25H179.515C179.499 66.658 179.267 66.138 178.819 65.69C178.387 65.226 177.779 64.994 176.995 64.994C176.323 64.978 175.755 65.146 175.291 65.498C174.843 65.834 174.619 66.33 174.619 66.986C174.619 67.546 174.795 67.994 175.147 68.33C175.499 68.65 175.979 68.922 176.587 69.146C177.195 69.37 177.891 69.61 178.675 69.866C179.507 70.154 180.267 70.49 180.955 70.874C181.643 71.258 182.195 71.77 182.611 72.41C183.027 73.034 183.235 73.842 183.235 74.834C183.235 75.714 183.011 76.53 182.563 77.282C182.115 78.034 181.451 78.642 180.571 79.106C179.691 79.554 178.611 79.778 177.331 79.778Z" fill="#001611"/>
<path d="M251.654 79.778C250.422 79.778 249.334 79.57 248.39 79.154C247.446 78.722 246.702 78.114 246.158 77.33C245.614 76.53 245.334 75.562 245.318 74.426H248.558C248.59 75.21 248.87 75.874 249.398 76.418C249.942 76.946 250.686 77.21 251.63 77.21C252.446 77.21 253.094 77.018 253.574 76.634C254.054 76.234 254.294 75.706 254.294 75.05C254.294 74.362 254.078 73.826 253.646 73.442C253.23 73.058 252.67 72.746 251.966 72.506C251.262 72.266 250.51 72.01 249.71 71.738C248.414 71.29 247.422 70.714 246.734 70.01C246.062 69.306 245.726 68.37 245.726 67.202C245.71 66.21 245.942 65.362 246.422 64.658C246.918 63.938 247.59 63.386 248.438 63.002C249.286 62.602 250.262 62.402 251.366 62.402C252.486 62.402 253.47 62.602 254.318 63.002C255.182 63.402 255.854 63.962 256.334 64.682C256.83 65.402 257.094 66.258 257.126 67.25H253.838C253.822 66.658 253.59 66.138 253.142 65.69C252.71 65.226 252.102 64.994 251.318 64.994C250.646 64.978 250.078 65.146 249.614 65.498C249.166 65.834 248.942 66.33 248.942 66.986C248.942 67.546 249.118 67.994 249.47 68.33C249.822 68.65 250.302 68.922 250.91 69.146C251.518 69.37 252.214 69.61 252.998 69.866C253.83 70.154 254.59 70.49 255.278 70.874C255.966 71.258 256.518 71.77 256.934 72.41C257.35 73.034 257.558 73.842 257.558 74.834C257.558 75.714 257.334 76.53 256.886 77.282C256.438 78.034 255.774 78.642 254.894 79.106C254.014 79.554 252.934 79.778 251.654 79.778Z" fill="#001611"/>
<path d="M319.327 79.49L314.887 62.69H318.175L321.199 76.058L324.751 62.69H328.135L331.591 76.058L334.615 62.69H337.927L333.367 79.49H329.719L326.383 67.034L322.951 79.49H319.327Z" fill="#001611"/>
<path d="M401.375 79.778C399.695 79.778 398.223 79.41 396.959 78.674C395.711 77.938 394.727 76.922 394.007 75.626C393.303 74.314 392.951 72.802 392.951 71.09C392.951 69.378 393.303 67.874 394.007 66.578C394.727 65.266 395.711 64.242 396.959 63.506C398.223 62.77 399.695 62.402 401.375 62.402C403.039 62.402 404.503 62.77 405.767 63.506C407.031 64.242 408.015 65.266 408.719 66.578C409.423 67.874 409.775 69.378 409.775 71.09C409.775 72.802 409.423 74.314 408.719 75.626C408.015 76.922 407.031 77.938 405.767 78.674C404.503 79.41 403.039 79.778 401.375 79.778ZM401.375 77.018C402.975 77.018 404.247 76.49 405.191 75.434C406.151 74.378 406.631 72.93 406.631 71.09C406.631 69.25 406.151 67.802 405.191 66.746C404.247 65.69 402.975 65.162 401.375 65.162C399.775 65.162 398.495 65.69 397.535 66.746C396.575 67.802 396.095 69.25 396.095 71.09C396.095 72.93 396.575 74.378 397.535 75.434C398.495 76.49 399.775 77.018 401.375 77.018Z" fill="#001611"/>
<path d="M468.842 79.49V62.69H475.01C476.354 62.69 477.458 62.922 478.322 63.386C479.202 63.834 479.858 64.45 480.29 65.234C480.722 66.002 480.938 66.858 480.938 67.802C480.938 68.826 480.666 69.762 480.122 70.61C479.594 71.458 478.762 72.074 477.626 72.458L481.106 79.49H477.578L474.458 72.866H471.914V79.49H468.842ZM471.914 70.61H474.818C475.842 70.61 476.594 70.362 477.074 69.866C477.554 69.37 477.794 68.714 477.794 67.898C477.794 67.098 477.554 66.458 477.074 65.978C476.61 65.498 475.85 65.258 474.794 65.258H471.914V70.61Z" fill="#001611"/>
<path d="M543.381 79.49V62.69H549.117C551.085 62.69 552.701 63.042 553.965 63.746C555.245 64.434 556.189 65.41 556.797 66.674C557.421 67.922 557.733 69.394 557.733 71.09C557.733 72.786 557.421 74.266 556.797 75.53C556.189 76.778 555.245 77.754 553.965 78.458C552.701 79.146 551.085 79.49 549.117 79.49H543.381ZM546.453 76.85H548.973C550.381 76.85 551.493 76.626 552.309 76.178C553.125 75.714 553.709 75.058 554.061 74.21C554.413 73.346 554.589 72.306 554.589 71.09C554.589 69.89 554.413 68.858 554.061 67.994C553.709 67.13 553.125 66.466 552.309 66.002C551.493 65.538 550.381 65.306 548.973 65.306H546.453V76.85Z" fill="#001611"/>
<path d="M215.351 17.582V4.98203H220.103C221.411 4.98203 222.401 5.28803 223.073 5.90003C223.745 6.51203 224.081 7.28003 224.081 8.20403C224.081 9.00803 223.865 9.65003 223.433 10.13C223.001 10.598 222.479 10.916 221.867 11.084C222.347 11.18 222.773 11.372 223.145 11.66C223.529 11.948 223.829 12.308 224.045 12.74C224.261 13.172 224.369 13.64 224.369 14.144C224.369 14.792 224.207 15.38 223.883 15.908C223.571 16.424 223.109 16.832 222.497 17.132C221.885 17.432 221.135 17.582 220.247 17.582H215.351ZM217.259 10.382H219.869C220.601 10.382 221.159 10.214 221.543 9.87803C221.927 9.53003 222.119 9.05603 222.119 8.45603C222.119 7.86803 221.927 7.40003 221.543 7.05203C221.171 6.70403 220.601 6.53003 219.833 6.53003H217.259V10.382ZM217.259 16.016H219.995C220.763 16.016 221.357 15.836 221.777 15.476C222.209 15.116 222.425 14.612 222.425 13.964C222.425 13.316 222.203 12.806 221.759 12.434C221.315 12.05 220.715 11.858 219.959 11.858H217.259V16.016ZM231.177 17.798C230.277 17.798 229.461 17.624 228.729 17.276C228.009 16.916 227.433 16.37 227.001 15.638C226.581 14.906 226.371 13.976 226.371 12.848V4.98203H228.279V12.866C228.279 13.97 228.543 14.78 229.071 15.296C229.599 15.812 230.313 16.07 231.213 16.07C232.101 16.07 232.809 15.812 233.337 15.296C233.865 14.78 234.129 13.97 234.129 12.866V4.98203H236.037V12.848C236.037 13.976 235.815 14.906 235.371 15.638C234.939 16.37 234.351 16.916 233.607 17.276C232.875 17.624 232.065 17.798 231.177 17.798ZM238.484 17.582V4.98203H246.386V6.53003H240.392V10.508H245.36V12.038H240.392V17.582H238.484ZM248.257 17.582V4.98203H256.159V6.53003H250.165V10.508H255.133V12.038H250.165V17.582H248.257ZM258.031 17.582V4.98203H266.041V6.53003H259.939V10.454H265.501V11.966H259.939V16.034H266.041V17.582H258.031ZM268.314 17.582V4.98203H272.652C273.648 4.98203 274.464 5.15003 275.1 5.48603C275.748 5.82203 276.228 6.27803 276.54 6.85403C276.852 7.41803 277.008 8.04803 277.008 8.74403C277.008 9.52403 276.798 10.232 276.378 10.868C275.97 11.504 275.328 11.96 274.452 12.236L277.134 17.582H274.92L272.472 12.506H270.222V17.582H268.314ZM270.222 11.066H272.544C273.408 11.066 274.038 10.856 274.434 10.436C274.842 10.016 275.046 9.47003 275.046 8.79803C275.046 8.12603 274.848 7.59203 274.452 7.19603C274.056 6.78803 273.414 6.58403 272.526 6.58403H270.222V11.066ZM286.914 20.192C286.242 19.544 285.636 18.782 285.096 17.906C284.568 17.042 284.142 16.082 283.818 15.026C283.506 13.958 283.35 12.812 283.35 11.588C283.35 10.364 283.506 9.22403 283.818 8.16803C284.142 7.10003 284.568 6.13403 285.096 5.27003C285.636 4.39403 286.242 3.63203 286.914 2.98403H288.822V3.16403C287.742 4.28003 286.872 5.55803 286.212 6.99803C285.564 8.43803 285.24 9.96803 285.24 11.588C285.24 13.208 285.564 14.738 286.212 16.178C286.872 17.618 287.748 18.896 288.84 20.012V20.192H286.914ZM294.255 17.798C293.415 17.798 292.653 17.648 291.969 17.348C291.297 17.036 290.757 16.604 290.349 16.052C289.953 15.5 289.755 14.852 289.755 14.108C289.755 13.352 289.965 12.674 290.385 12.074C290.817 11.474 291.387 11.066 292.095 10.85C291.459 10.598 290.967 10.232 290.619 9.75203C290.271 9.26003 290.097 8.72003 290.097 8.13203C290.097 7.52003 290.259 6.96203 290.583 6.45803C290.907 5.94203 291.375 5.53403 291.987 5.23403C292.611 4.92203 293.367 4.76603 294.255 4.76603C295.143 4.76603 295.893 4.92203 296.505 5.23403C297.129 5.53403 297.603 5.94203 297.927 6.45803C298.251 6.96203 298.413 7.52003 298.413 8.13203C298.413 8.70803 298.233 9.24803 297.873 9.75203C297.525 10.244 297.033 10.61 296.397 10.85C297.105 11.078 297.669 11.492 298.089 12.092C298.521 12.68 298.737 13.352 298.737 14.108C298.737 14.852 298.539 15.5 298.143 16.052C297.747 16.604 297.207 17.036 296.523 17.348C295.851 17.648 295.095 17.798 294.255 17.798ZM294.255 10.238C294.951 10.238 295.497 10.058 295.893 9.69803C296.301 9.33803 296.505 8.87603 296.505 8.31203C296.505 7.67603 296.307 7.19003 295.911 6.85403C295.515 6.51803 294.963 6.35003 294.255 6.35003C293.547 6.35003 292.995 6.51803 292.599 6.85403C292.203 7.19003 292.005 7.67603 292.005 8.31203C292.005 8.87603 292.203 9.33803 292.599 9.69803C292.995 10.058 293.547 10.238 294.255 10.238ZM294.255 16.178C295.119 16.178 295.767 15.974 296.199 15.566C296.631 15.146 296.847 14.612 296.847 13.964C296.847 13.244 296.613 12.692 296.145 12.308C295.689 11.912 295.059 11.714 294.255 11.714C293.451 11.714 292.815 11.912 292.347 12.308C291.879 12.692 291.645 13.244 291.645 13.964C291.645 14.612 291.861 15.146 292.293 15.566C292.737 15.974 293.391 16.178 294.255 16.178ZM305.65 17.582V4.98203H310.402C311.71 4.98203 312.7 5.28803 313.372 5.90003C314.044 6.51203 314.38 7.28003 314.38 8.20403C314.38 9.00803 314.164 9.65003 313.732 10.13C313.3 10.598 312.778 10.916 312.166 11.084C312.646 11.18 313.072 11.372 313.444 11.66C313.828 11.948 314.128 12.308 314.344 12.74C314.56 13.172 314.668 13.64 314.668 14.144C314.668 14.792 314.506 15.38 314.182 15.908C313.87 16.424 313.408 16.832 312.796 17.132C312.184 17.432 311.434 17.582 310.546 17.582H305.65ZM307.558 10.382H310.168C310.9 10.382 311.458 10.214 311.842 9.87803C312.226 9.53003 312.418 9.05603 312.418 8.45603C312.418 7.86803 312.226 7.40003 311.842 7.05203C311.47 6.70403 310.9 6.53003 310.132 6.53003H307.558V10.382ZM307.558 16.016H310.294C311.062 16.016 311.656 15.836 312.076 15.476C312.508 15.116 312.724 14.612 312.724 13.964C312.724 13.316 312.502 12.806 312.058 12.434C311.614 12.05 311.014 11.858 310.258 11.858H307.558V16.016ZM319.419 17.582V12.938L315.243 4.98203H317.403L320.373 11.066L323.325 4.98203H325.467L321.327 12.938V17.582H319.419ZM329.995 17.582V6.53003H326.269V4.98203H335.611V6.53003H331.903V17.582H329.995ZM337.396 17.582V4.98203H345.406V6.53003H339.304V10.454H344.866V11.966H339.304V16.034H345.406V17.582H337.396ZM351.837 17.798C350.913 17.798 350.103 17.636 349.407 17.312C348.711 16.988 348.165 16.526 347.769 15.926C347.385 15.326 347.187 14.612 347.175 13.784H349.191C349.203 14.456 349.437 15.026 349.893 15.494C350.349 15.962 350.991 16.196 351.819 16.196C352.551 16.196 353.121 16.022 353.529 15.674C353.949 15.314 354.159 14.858 354.159 14.306C354.159 13.862 354.057 13.502 353.853 13.226C353.661 12.95 353.391 12.722 353.043 12.542C352.707 12.362 352.317 12.2 351.873 12.056C351.429 11.912 350.961 11.756 350.469 11.588C349.497 11.264 348.765 10.844 348.273 10.328C347.793 9.81203 347.553 9.13403 347.553 8.29403C347.541 7.58603 347.703 6.96803 348.039 6.44003C348.387 5.91203 348.867 5.50403 349.479 5.21603C350.103 4.91603 350.829 4.76603 351.657 4.76603C352.473 4.76603 353.187 4.91603 353.799 5.21603C354.423 5.51603 354.909 5.93603 355.257 6.47603C355.605 7.00403 355.785 7.62203 355.797 8.33003H353.781C353.781 8.00603 353.697 7.70003 353.529 7.41203C353.361 7.11203 353.115 6.86603 352.791 6.67403C352.467 6.48203 352.071 6.38603 351.603 6.38603C351.003 6.37403 350.505 6.52403 350.109 6.83603C349.725 7.14803 349.533 7.58003 349.533 8.13203C349.533 8.62403 349.677 9.00203 349.965 9.26603C350.253 9.53003 350.649 9.75203 351.153 9.93203C351.657 10.1 352.233 10.298 352.881 10.526C353.505 10.73 354.063 10.976 354.555 11.264C355.047 11.552 355.437 11.93 355.725 12.398C356.025 12.866 356.175 13.46 356.175 14.18C356.175 14.816 356.013 15.41 355.689 15.962C355.365 16.502 354.879 16.946 354.231 17.294C353.583 17.63 352.785 17.798 351.837 17.798ZM357.613 20.192V20.012C358.693 18.896 359.563 17.618 360.223 16.178C360.883 14.738 361.213 13.208 361.213 11.588C361.213 9.96803 360.883 8.43803 360.223 6.99803C359.575 5.55803 358.711 4.28003 357.631 3.16403V2.98403H359.539C360.199 3.63203 360.799 4.39403 361.339 5.27003C361.879 6.13403 362.305 7.10003 362.617 8.16803C362.941 9.22403 363.103 10.364 363.103 11.588C363.103 12.812 362.941 13.958 362.617 15.026C362.305 16.082 361.879 17.042 361.339 17.906C360.799 18.782 360.199 19.544 359.539 20.192H357.613Z" fill="#F3D5FE"/>
<path fill-rule="evenodd" clip-rule="evenodd" d="M4.44177 12.999H204.624V8.99902H0.441772V9.04785V12.999V27.1768H4.44177L4.44177 12.999Z" fill="#F3D5FE"/>
<path fill-rule="evenodd" clip-rule="evenodd" d="M573.558 12.999H373.045V8.99902H577.558V9.04785V12.999V27.1768H573.558L573.558 12.999Z" fill="#F3D5FE"/>
</svg>
