<svg width="730" height="143" viewBox="0 0 730 143" fill="none" xmlns="http://www.w3.org/2000/svg">
<rect x="1.01804" y="54.437" width="55" height="55" fill="#F3D5FE"/>
<rect x="75.5703" y="54.437" width="55" height="55" fill="#F3D5FE"/>
<rect x="150.347" y="54.437" width="55" height="55" fill="#F3D5FE"/>
<rect x="224.579" y="54.437" width="55" height="55" fill="#F3D5FE"/>
<rect x="299.174" y="54.437" width="55" height="55" fill="#F3D5FE"/>
<rect x="373.769" y="54.437" width="55" height="55" fill="#F3D5FE"/>
<rect x="448.364" y="54.437" width="55" height="55" fill="#F3D5FE"/>
<rect x="598.917" y="54.437" width="55" height="55" fill="#FFCFA3"/>
<rect x="522.959" y="54.437" width="55" height="55" fill="#F3D5FE"/>
<rect x="673.512" y="54.437" width="55" height="55" fill="#FFCFA3"/>
<path d="M28.5215 133.032C27.5855 133.032 26.7575 132.774 26.0375 132.258C25.3175 131.73 24.7535 130.98 24.3455 130.008C23.9375 129.024 23.7335 127.86 23.7335 126.516C23.7335 125.16 23.9375 123.996 24.3455 123.024C24.7535 122.052 25.3175 121.308 26.0375 120.792C26.7575 120.264 27.5855 120 28.5215 120C29.4575 120 30.2855 120.264 31.0055 120.792C31.7255 121.308 32.2895 122.052 32.6975 123.024C33.1055 123.996 33.3095 125.16 33.3095 126.516C33.3095 127.86 33.1055 129.024 32.6975 130.008C32.2895 130.98 31.7255 131.73 31.0055 132.258C30.2855 132.774 29.4575 133.032 28.5215 133.032ZM25.0295 126.516C25.0295 127.428 25.1315 128.244 25.3355 128.964C25.5515 129.672 25.8455 130.26 26.2175 130.728L29.9255 121.53C29.4935 121.278 29.0255 121.152 28.5215 121.152C27.8375 121.152 27.2315 121.374 26.7035 121.818C26.1875 122.25 25.7795 122.868 25.4795 123.672C25.1795 124.464 25.0295 125.412 25.0295 126.516ZM28.5215 131.898C29.2055 131.898 29.8115 131.682 30.3395 131.25C30.8675 130.806 31.2755 130.182 31.5635 129.378C31.8635 128.562 32.0135 127.608 32.0135 126.516C32.0135 125.604 31.9055 124.794 31.6895 124.086C31.4855 123.366 31.1975 122.778 30.8255 122.322L27.1175 131.52C27.5495 131.772 28.0175 131.898 28.5215 131.898Z" fill="#CCCCCC"/>
<path d="M98.9879 132.816V131.664H102.318V121.71L99.1679 122.34V121.422L102.696 120.216H103.578V131.664H107.088V132.816H98.9879Z" fill="#CCCCCC"/>
<path d="M173.837 132.816V131.844C175.181 130.776 176.339 129.798 177.311 128.91C178.295 128.022 179.051 127.17 179.579 126.354C180.119 125.526 180.389 124.668 180.389 123.78C180.389 122.964 180.155 122.322 179.687 121.854C179.231 121.386 178.613 121.152 177.833 121.152C177.245 121.152 176.747 121.278 176.339 121.53C175.931 121.782 175.625 122.118 175.421 122.538C175.217 122.946 175.115 123.402 175.115 123.906H173.855C173.855 123.102 174.029 122.412 174.377 121.836C174.725 121.248 175.199 120.798 175.799 120.486C176.399 120.162 177.077 120 177.833 120C179.045 120 179.987 120.342 180.659 121.026C181.343 121.71 181.685 122.622 181.685 123.762C181.685 124.53 181.517 125.268 181.181 125.976C180.857 126.672 180.413 127.35 179.849 128.01C179.297 128.658 178.673 129.288 177.977 129.9C177.293 130.5 176.585 131.088 175.853 131.664H182.027V132.816H173.837Z" fill="#CCCCCC"/>
<path d="M252.398 133.032C251.594 133.032 250.862 132.882 250.202 132.582C249.554 132.27 249.032 131.826 248.636 131.25C248.252 130.662 248.042 129.954 248.006 129.126H249.302C249.314 129.63 249.446 130.092 249.698 130.512C249.95 130.92 250.304 131.25 250.76 131.502C251.216 131.754 251.762 131.88 252.398 131.88C253.346 131.88 254.066 131.634 254.558 131.142C255.062 130.65 255.314 129.984 255.314 129.144C255.314 128.568 255.17 128.094 254.882 127.722C254.594 127.338 254.204 127.056 253.712 126.876C253.232 126.684 252.692 126.588 252.092 126.588H251.012V125.436H251.966C252.842 125.436 253.532 125.244 254.036 124.86C254.54 124.464 254.792 123.918 254.792 123.222C254.792 122.622 254.588 122.13 254.18 121.746C253.772 121.35 253.178 121.152 252.398 121.152C251.666 121.152 251.066 121.362 250.598 121.782C250.142 122.19 249.884 122.73 249.824 123.402H248.528C248.564 122.742 248.744 122.16 249.068 121.656C249.404 121.14 249.854 120.738 250.418 120.45C250.982 120.15 251.642 120 252.398 120C253.19 120 253.862 120.144 254.414 120.432C254.966 120.72 255.38 121.104 255.656 121.584C255.944 122.064 256.088 122.586 256.088 123.15C256.088 123.774 255.896 124.332 255.512 124.824C255.128 125.304 254.66 125.646 254.108 125.85V125.958C254.84 126.174 255.44 126.54 255.908 127.056C256.376 127.56 256.61 128.25 256.61 129.126C256.61 129.858 256.436 130.518 256.088 131.106C255.752 131.694 255.272 132.162 254.648 132.51C254.024 132.858 253.274 133.032 252.398 133.032Z" fill="#CCCCCC"/>
<path d="M401.219 133.032C400.367 133.032 399.635 132.87 399.023 132.546C398.423 132.222 397.943 131.784 397.583 131.232C397.235 130.68 397.013 130.062 396.917 129.378H398.213C398.333 130.11 398.663 130.71 399.203 131.178C399.743 131.646 400.421 131.88 401.237 131.88C401.885 131.88 402.437 131.736 402.893 131.448C403.349 131.16 403.697 130.77 403.937 130.278C404.189 129.774 404.315 129.21 404.315 128.586C404.315 127.59 404.039 126.81 403.487 126.246C402.935 125.67 402.209 125.382 401.309 125.382C400.589 125.382 399.971 125.544 399.455 125.868C398.951 126.192 398.543 126.606 398.231 127.11H397.043L398.123 120.216H404.765V121.368H399.113L398.411 125.436H398.483C398.771 125.124 399.167 124.848 399.671 124.608C400.187 124.356 400.763 124.23 401.399 124.23C402.203 124.23 402.917 124.404 403.541 124.752C404.165 125.088 404.651 125.58 404.999 126.228C405.359 126.876 405.539 127.656 405.539 128.568C405.539 129.36 405.371 130.098 405.035 130.782C404.711 131.454 404.225 132 403.577 132.42C402.941 132.828 402.155 133.032 401.219 133.032Z" fill="#CCCCCC"/>
<path d="M548.078 132.816L553.082 121.368H546.026V120.216H554.378V121.26L549.428 132.816H548.078Z" fill="#CCCCCC"/>
<path d="M700.575 133.032C699.831 133.032 699.165 132.882 698.577 132.582C697.989 132.27 697.515 131.856 697.155 131.34C696.807 130.824 696.603 130.254 696.543 129.63H697.767C697.887 130.302 698.193 130.848 698.685 131.268C699.177 131.676 699.807 131.88 700.575 131.88C701.571 131.88 702.387 131.424 703.023 130.512C703.671 129.588 704.031 128.148 704.103 126.192H704.031C703.695 126.792 703.263 127.29 702.735 127.686C702.207 128.07 701.463 128.262 700.503 128.262C699.747 128.262 699.063 128.082 698.451 127.722C697.851 127.362 697.371 126.876 697.011 126.264C696.663 125.652 696.489 124.968 696.489 124.212C696.489 123.444 696.663 122.742 697.011 122.106C697.359 121.47 697.845 120.96 698.469 120.576C699.093 120.192 699.819 120 700.647 120C702.195 120 703.353 120.534 704.121 121.602C704.901 122.67 705.291 124.134 705.291 125.994C705.291 127.374 705.111 128.592 704.751 129.648C704.391 130.704 703.857 131.532 703.149 132.132C702.453 132.732 701.595 133.032 700.575 133.032ZM700.737 127.11C701.337 127.11 701.859 126.984 702.303 126.732C702.747 126.468 703.089 126.108 703.329 125.652C703.581 125.196 703.707 124.686 703.707 124.122C703.707 123.546 703.581 123.036 703.329 122.592C703.089 122.148 702.747 121.8 702.303 121.548C701.859 121.284 701.337 121.152 700.737 121.152C700.137 121.152 699.615 121.284 699.171 121.548C698.727 121.812 698.385 122.172 698.145 122.628C697.905 123.072 697.785 123.576 697.785 124.14C697.785 124.704 697.905 125.214 698.145 125.67C698.385 126.114 698.727 126.468 699.171 126.732C699.615 126.984 700.137 127.11 700.737 127.11Z" fill="#CCCCCC"/>
<path d="M475.981 133.032C474.937 133.032 474.067 132.78 473.371 132.276C472.687 131.76 472.177 131.052 471.841 130.152C471.505 129.252 471.337 128.214 471.337 127.038C471.337 125.658 471.523 124.44 471.895 123.384C472.279 122.328 472.831 121.5 473.551 120.9C474.271 120.3 475.141 120 476.161 120C476.941 120 477.613 120.156 478.177 120.468C478.741 120.768 479.185 121.176 479.509 121.692C479.833 122.196 480.025 122.766 480.085 123.402H478.879C478.759 122.718 478.459 122.172 477.979 121.764C477.499 121.356 476.893 121.152 476.161 121.152C475.525 121.152 474.937 121.356 474.397 121.764C473.869 122.16 473.437 122.778 473.101 123.618C472.765 124.458 472.573 125.532 472.525 126.84H472.597C472.897 126.276 473.341 125.79 473.929 125.382C474.529 124.974 475.261 124.77 476.125 124.77C476.881 124.77 477.559 124.95 478.159 125.31C478.771 125.67 479.251 126.156 479.599 126.768C479.959 127.368 480.139 128.052 480.139 128.82C480.139 129.576 479.965 130.278 479.617 130.926C479.269 131.562 478.783 132.072 478.159 132.456C477.547 132.84 476.821 133.032 475.981 133.032ZM475.891 131.88C476.479 131.88 476.995 131.748 477.439 131.484C477.883 131.22 478.225 130.866 478.465 130.422C478.717 129.966 478.843 129.456 478.843 128.892C478.843 128.328 478.717 127.824 478.465 127.38C478.225 126.924 477.883 126.57 477.439 126.318C476.995 126.054 476.479 125.922 475.891 125.922C475.303 125.922 474.787 126.054 474.343 126.318C473.899 126.57 473.551 126.924 473.299 127.38C473.047 127.824 472.921 128.334 472.921 128.91C472.921 129.474 473.047 129.984 473.299 130.44C473.551 130.884 473.899 131.238 474.343 131.502C474.787 131.754 475.303 131.88 475.891 131.88Z" fill="#CCCCCC"/>
<path d="M626.281 133.032C625.465 133.032 624.745 132.876 624.121 132.564C623.497 132.252 623.011 131.826 622.663 131.286C622.315 130.734 622.141 130.116 622.141 129.432C622.141 128.628 622.357 127.944 622.789 127.38C623.221 126.816 623.719 126.42 624.283 126.192V126.12C623.731 125.868 623.293 125.502 622.969 125.022C622.645 124.53 622.483 123.972 622.483 123.348C622.483 122.724 622.639 122.16 622.951 121.656C623.275 121.152 623.719 120.75 624.283 120.45C624.859 120.15 625.525 120 626.281 120C627.001 120 627.643 120.15 628.207 120.45C628.783 120.75 629.239 121.152 629.575 121.656C629.911 122.16 630.079 122.724 630.079 123.348C630.079 123.972 629.917 124.53 629.593 125.022C629.269 125.502 628.831 125.868 628.279 126.12V126.192C628.843 126.42 629.341 126.816 629.773 127.38C630.205 127.944 630.421 128.628 630.421 129.432C630.421 130.116 630.247 130.734 629.899 131.286C629.551 131.826 629.065 132.252 628.441 132.564C627.817 132.876 627.097 133.032 626.281 133.032ZM626.281 125.616C627.073 125.616 627.691 125.412 628.135 125.004C628.591 124.584 628.819 124.044 628.819 123.384C628.819 122.712 628.591 122.172 628.135 121.764C627.691 121.356 627.073 121.152 626.281 121.152C625.489 121.152 624.865 121.356 624.409 121.764C623.965 122.172 623.743 122.712 623.743 123.384C623.743 124.044 623.965 124.584 624.409 125.004C624.865 125.412 625.489 125.616 626.281 125.616ZM626.281 131.88C627.121 131.88 627.805 131.664 628.333 131.232C628.861 130.788 629.125 130.146 629.125 129.306C629.125 128.454 628.861 127.812 628.333 127.38C627.805 126.948 627.121 126.732 626.281 126.732C625.441 126.732 624.757 126.948 624.229 127.38C623.701 127.812 623.437 128.454 623.437 129.306C623.437 130.146 623.701 130.788 624.229 131.232C624.757 131.664 625.441 131.88 626.281 131.88Z" fill="#CCCCCC"/>
<path d="M328.365 132.816V129.774H322.281V128.82L328.113 120.216H329.607V128.622H331.533V129.774H329.607V132.816H328.365ZM323.703 128.622H328.419V121.728L323.703 128.622Z" fill="#CCCCCC"/>
<path d="M22.861 90.437V73.637H29.077C30.421 73.637 31.533 73.861 32.413 74.309C33.293 74.757 33.949 75.373 34.381 76.157C34.813 76.941 35.029 77.821 35.029 78.797C35.029 79.725 34.821 80.581 34.405 81.365C33.989 82.133 33.341 82.757 32.461 83.237C31.581 83.701 30.453 83.933 29.077 83.933H25.933V90.437H22.861ZM25.933 81.437H28.885C29.957 81.437 30.725 81.205 31.189 80.741C31.669 80.261 31.909 79.613 31.909 78.797C31.909 77.965 31.669 77.317 31.189 76.853C30.725 76.373 29.957 76.133 28.885 76.133H25.933V81.437Z" fill="#001611"/>
<path d="M95.2083 90.437L101.352 73.637H104.808L110.952 90.437H107.688L106.344 86.549H99.7923L98.4243 90.437H95.2083ZM100.632 84.149H105.504L103.056 77.165L100.632 84.149Z" fill="#001611"/>
<path d="M178.055 90.725C176.823 90.725 175.735 90.517 174.791 90.101C173.847 89.669 173.103 89.061 172.559 88.277C172.015 87.477 171.735 86.509 171.719 85.373H174.959C174.991 86.157 175.271 86.821 175.799 87.365C176.343 87.893 177.087 88.157 178.031 88.157C178.847 88.157 179.495 87.965 179.975 87.581C180.455 87.181 180.695 86.653 180.695 85.997C180.695 85.309 180.479 84.773 180.047 84.389C179.631 84.005 179.071 83.693 178.367 83.453C177.663 83.213 176.911 82.957 176.111 82.685C174.815 82.237 173.823 81.661 173.135 80.957C172.463 80.253 172.127 79.317 172.127 78.149C172.111 77.157 172.343 76.309 172.823 75.605C173.319 74.885 173.991 74.333 174.839 73.949C175.687 73.549 176.663 73.349 177.767 73.349C178.887 73.349 179.871 73.549 180.719 73.949C181.583 74.349 182.255 74.909 182.735 75.629C183.231 76.349 183.495 77.205 183.527 78.197H180.239C180.223 77.605 179.991 77.085 179.543 76.637C179.111 76.173 178.503 75.941 177.719 75.941C177.047 75.925 176.479 76.093 176.015 76.445C175.567 76.781 175.343 77.277 175.343 77.933C175.343 78.493 175.519 78.941 175.871 79.277C176.223 79.597 176.703 79.869 177.311 80.093C177.919 80.317 178.615 80.557 179.399 80.813C180.231 81.101 180.991 81.437 181.679 81.821C182.367 82.205 182.919 82.717 183.335 83.357C183.751 83.981 183.959 84.789 183.959 85.781C183.959 86.661 183.735 87.477 183.287 88.229C182.839 88.981 182.175 89.589 181.295 90.053C180.415 90.501 179.335 90.725 178.055 90.725Z" fill="#001611"/>
<path d="M252.377 90.725C251.145 90.725 250.057 90.517 249.113 90.101C248.169 89.669 247.425 89.061 246.881 88.277C246.337 87.477 246.057 86.509 246.041 85.373H249.281C249.313 86.157 249.593 86.821 250.121 87.365C250.665 87.893 251.409 88.157 252.353 88.157C253.169 88.157 253.817 87.965 254.297 87.581C254.777 87.181 255.017 86.653 255.017 85.997C255.017 85.309 254.801 84.773 254.369 84.389C253.953 84.005 253.393 83.693 252.689 83.453C251.985 83.213 251.233 82.957 250.433 82.685C249.137 82.237 248.145 81.661 247.457 80.957C246.785 80.253 246.449 79.317 246.449 78.149C246.433 77.157 246.665 76.309 247.145 75.605C247.641 74.885 248.313 74.333 249.161 73.949C250.009 73.549 250.985 73.349 252.089 73.349C253.209 73.349 254.193 73.549 255.041 73.949C255.905 74.349 256.577 74.909 257.057 75.629C257.553 76.349 257.817 77.205 257.849 78.197H254.561C254.545 77.605 254.313 77.085 253.865 76.637C253.433 76.173 252.825 75.941 252.041 75.941C251.369 75.925 250.801 76.093 250.337 76.445C249.889 76.781 249.665 77.277 249.665 77.933C249.665 78.493 249.841 78.941 250.193 79.277C250.545 79.597 251.025 79.869 251.633 80.093C252.241 80.317 252.937 80.557 253.721 80.813C254.553 81.101 255.313 81.437 256.001 81.821C256.689 82.205 257.241 82.717 257.657 83.357C258.073 83.981 258.281 84.789 258.281 85.781C258.281 86.661 258.057 87.477 257.609 88.229C257.161 88.981 256.497 89.589 255.617 90.053C254.737 90.501 253.657 90.725 252.377 90.725Z" fill="#001611"/>
<path d="M320.051 90.437L315.611 73.637H318.899L321.923 87.005L325.475 73.637H328.859L332.315 87.005L335.339 73.637H338.651L334.091 90.437H330.443L327.107 77.981L323.675 90.437H320.051Z" fill="#001611"/>
<path d="M402.098 90.725C400.418 90.725 398.946 90.357 397.682 89.621C396.434 88.885 395.45 87.869 394.73 86.573C394.026 85.261 393.674 83.749 393.674 82.037C393.674 80.325 394.026 78.821 394.73 77.525C395.45 76.213 396.434 75.189 397.682 74.453C398.946 73.717 400.418 73.349 402.098 73.349C403.762 73.349 405.226 73.717 406.49 74.453C407.754 75.189 408.738 76.213 409.442 77.525C410.146 78.821 410.498 80.325 410.498 82.037C410.498 83.749 410.146 85.261 409.442 86.573C408.738 87.869 407.754 88.885 406.49 89.621C405.226 90.357 403.762 90.725 402.098 90.725ZM402.098 87.965C403.698 87.965 404.97 87.437 405.914 86.381C406.874 85.325 407.354 83.877 407.354 82.037C407.354 80.197 406.874 78.749 405.914 77.693C404.97 76.637 403.698 76.109 402.098 76.109C400.498 76.109 399.218 76.637 398.258 77.693C397.298 78.749 396.818 80.197 396.818 82.037C396.818 83.877 397.298 85.325 398.258 86.381C399.218 87.437 400.498 87.965 402.098 87.965Z" fill="#001611"/>
<path d="M469.565 90.437V73.637H475.733C477.077 73.637 478.181 73.869 479.045 74.333C479.925 74.781 480.581 75.397 481.013 76.181C481.445 76.949 481.661 77.805 481.661 78.749C481.661 79.773 481.389 80.709 480.845 81.557C480.317 82.405 479.485 83.021 478.349 83.405L481.829 90.437H478.301L475.181 83.813H472.637V90.437H469.565ZM472.637 81.557H475.541C476.565 81.557 477.317 81.309 477.797 80.813C478.277 80.317 478.517 79.661 478.517 78.845C478.517 78.045 478.277 77.405 477.797 76.925C477.333 76.445 476.573 76.205 475.517 76.205H472.637V81.557Z" fill="#001611"/>
<path d="M624.439 90.437V84.461L618.799 73.637H622.279L625.999 81.389L629.695 73.637H633.127L627.511 84.461V90.437H624.439Z" fill="#001611"/>
<path d="M544.105 90.437V73.637H549.841C551.809 73.637 553.425 73.989 554.689 74.693C555.969 75.381 556.913 76.357 557.521 77.621C558.145 78.869 558.457 80.341 558.457 82.037C558.457 83.733 558.145 85.213 557.521 86.477C556.913 87.725 555.969 88.701 554.689 89.405C553.425 90.093 551.809 90.437 549.841 90.437H544.105ZM547.177 87.797H549.697C551.105 87.797 552.217 87.573 553.033 87.125C553.849 86.661 554.433 86.005 554.785 85.157C555.137 84.293 555.313 83.253 555.313 82.037C555.313 80.837 555.137 79.805 554.785 78.941C554.433 78.077 553.849 77.413 553.033 76.949C552.217 76.485 551.105 76.253 549.697 76.253H547.177V87.797Z" fill="#001611"/>
<path d="M701.569 90.725C699.889 90.725 698.417 90.357 697.153 89.621C695.905 88.885 694.921 87.869 694.201 86.573C693.497 85.261 693.145 83.749 693.145 82.037C693.145 80.325 693.497 78.821 694.201 77.525C694.921 76.213 695.905 75.189 697.153 74.453C698.417 73.717 699.889 73.349 701.569 73.349C703.233 73.349 704.697 73.717 705.961 74.453C707.225 75.189 708.209 76.213 708.913 77.525C709.617 78.821 709.969 80.325 709.969 82.037C709.969 83.749 709.617 85.261 708.913 86.573C708.209 87.869 707.225 88.885 705.961 89.621C704.697 90.357 703.233 90.725 701.569 90.725ZM701.569 87.965C703.169 87.965 704.441 87.437 705.385 86.381C706.345 85.325 706.825 83.877 706.825 82.037C706.825 80.197 706.345 78.749 705.385 77.693C704.441 76.637 703.169 76.109 701.569 76.109C699.969 76.109 698.689 76.637 697.729 77.693C696.769 78.749 696.289 80.197 696.289 82.037C696.289 83.877 696.769 85.325 697.729 86.381C698.689 87.437 699.969 87.965 701.569 87.965Z" fill="#001611"/>
<path d="M216.075 28.5292V15.9292H220.827C222.135 15.9292 223.125 16.2352 223.797 16.8472C224.469 17.4592 224.805 18.2272 224.805 19.1512C224.805 19.9552 224.589 20.5972 224.157 21.0772C223.725 21.5452 223.203 21.8632 222.591 22.0312C223.071 22.1272 223.497 22.3192 223.869 22.6072C224.253 22.8952 224.553 23.2552 224.769 23.6872C224.985 24.1192 225.093 24.5872 225.093 25.0912C225.093 25.7392 224.931 26.3272 224.607 26.8552C224.295 27.3712 223.833 27.7792 223.221 28.0792C222.609 28.3792 221.859 28.5292 220.971 28.5292H216.075ZM217.983 21.3292H220.593C221.325 21.3292 221.883 21.1612 222.267 20.8252C222.651 20.4772 222.843 20.0032 222.843 19.4032C222.843 18.8152 222.651 18.3472 222.267 17.9992C221.895 17.6512 221.325 17.4772 220.557 17.4772H217.983V21.3292ZM217.983 26.9632H220.719C221.487 26.9632 222.081 26.7832 222.501 26.4232C222.933 26.0632 223.149 25.5592 223.149 24.9112C223.149 24.2632 222.927 23.7532 222.483 23.3812C222.039 22.9972 221.439 22.8052 220.683 22.8052H217.983V26.9632ZM231.9 28.7452C231 28.7452 230.184 28.5712 229.452 28.2232C228.732 27.8632 228.156 27.3172 227.724 26.5852C227.304 25.8532 227.094 24.9232 227.094 23.7952V15.9292H229.002V23.8132C229.002 24.9172 229.266 25.7272 229.794 26.2432C230.322 26.7592 231.036 27.0172 231.936 27.0172C232.824 27.0172 233.532 26.7592 234.06 26.2432C234.588 25.7272 234.852 24.9172 234.852 23.8132V15.9292H236.76V23.7952C236.76 24.9232 236.538 25.8532 236.094 26.5852C235.662 27.3172 235.074 27.8632 234.33 28.2232C233.598 28.5712 232.788 28.7452 231.9 28.7452ZM239.208 28.5292V15.9292H247.11V17.4772H241.116V21.4552H246.084V22.9852H241.116V28.5292H239.208ZM248.981 28.5292V15.9292H256.883V17.4772H250.889V21.4552H255.857V22.9852H250.889V28.5292H248.981ZM258.755 28.5292V15.9292H266.765V17.4772H260.663V21.4012H266.225V22.9132H260.663V26.9812H266.765V28.5292H258.755ZM269.038 28.5292V15.9292H273.376C274.372 15.9292 275.188 16.0972 275.824 16.4332C276.472 16.7692 276.952 17.2252 277.264 17.8012C277.576 18.3652 277.732 18.9952 277.732 19.6912C277.732 20.4712 277.522 21.1792 277.102 21.8152C276.694 22.4512 276.052 22.9072 275.176 23.1832L277.858 28.5292H275.644L273.196 23.4532H270.946V28.5292H269.038ZM270.946 22.0132H273.268C274.132 22.0132 274.762 21.8032 275.158 21.3832C275.566 20.9632 275.77 20.4172 275.77 19.7452C275.77 19.0732 275.572 18.5392 275.176 18.1432C274.78 17.7352 274.138 17.5312 273.25 17.5312H270.946V22.0132ZM287.638 31.1392C286.966 30.4912 286.36 29.7292 285.82 28.8532C285.292 27.9892 284.866 27.0292 284.542 25.9732C284.23 24.9052 284.074 23.7592 284.074 22.5352C284.074 21.3112 284.23 20.1712 284.542 19.1152C284.866 18.0472 285.292 17.0812 285.82 16.2172C286.36 15.3412 286.966 14.5792 287.638 13.9312H289.546V14.1112C288.466 15.2272 287.596 16.5052 286.936 17.9452C286.288 19.3852 285.964 20.9152 285.964 22.5352C285.964 24.1552 286.288 25.6852 286.936 27.1252C287.596 28.5652 288.472 29.8432 289.564 30.9592V31.1392H287.638ZM294.978 28.7452C294.138 28.7452 293.376 28.5952 292.692 28.2952C292.02 27.9832 291.48 27.5512 291.072 26.9992C290.676 26.4472 290.478 25.7992 290.478 25.0552C290.478 24.2992 290.688 23.6212 291.108 23.0212C291.54 22.4212 292.11 22.0132 292.818 21.7972C292.182 21.5452 291.69 21.1792 291.342 20.6992C290.994 20.2072 290.82 19.6672 290.82 19.0792C290.82 18.4672 290.982 17.9092 291.306 17.4052C291.63 16.8892 292.098 16.4812 292.71 16.1812C293.334 15.8692 294.09 15.7132 294.978 15.7132C295.866 15.7132 296.616 15.8692 297.228 16.1812C297.852 16.4812 298.326 16.8892 298.65 17.4052C298.974 17.9092 299.136 18.4672 299.136 19.0792C299.136 19.6552 298.956 20.1952 298.596 20.6992C298.248 21.1912 297.756 21.5572 297.12 21.7972C297.828 22.0252 298.392 22.4392 298.812 23.0392C299.244 23.6272 299.46 24.2992 299.46 25.0552C299.46 25.7992 299.262 26.4472 298.866 26.9992C298.47 27.5512 297.93 27.9832 297.246 28.2952C296.574 28.5952 295.818 28.7452 294.978 28.7452ZM294.978 21.1852C295.674 21.1852 296.22 21.0052 296.616 20.6452C297.024 20.2852 297.228 19.8232 297.228 19.2592C297.228 18.6232 297.03 18.1372 296.634 17.8012C296.238 17.4652 295.686 17.2972 294.978 17.2972C294.27 17.2972 293.718 17.4652 293.322 17.8012C292.926 18.1372 292.728 18.6232 292.728 19.2592C292.728 19.8232 292.926 20.2852 293.322 20.6452C293.718 21.0052 294.27 21.1852 294.978 21.1852ZM294.978 27.1252C295.842 27.1252 296.49 26.9212 296.922 26.5132C297.354 26.0932 297.57 25.5592 297.57 24.9112C297.57 24.1912 297.336 23.6392 296.868 23.2552C296.412 22.8592 295.782 22.6612 294.978 22.6612C294.174 22.6612 293.538 22.8592 293.07 23.2552C292.602 23.6392 292.368 24.1912 292.368 24.9112C292.368 25.5592 292.584 26.0932 293.016 26.5132C293.46 26.9212 294.114 27.1252 294.978 27.1252ZM306.374 28.5292V15.9292H311.126C312.434 15.9292 313.424 16.2352 314.096 16.8472C314.768 17.4592 315.104 18.2272 315.104 19.1512C315.104 19.9552 314.888 20.5972 314.456 21.0772C314.024 21.5452 313.502 21.8632 312.89 22.0312C313.37 22.1272 313.796 22.3192 314.168 22.6072C314.552 22.8952 314.852 23.2552 315.068 23.6872C315.284 24.1192 315.392 24.5872 315.392 25.0912C315.392 25.7392 315.23 26.3272 314.906 26.8552C314.594 27.3712 314.132 27.7792 313.52 28.0792C312.908 28.3792 312.158 28.5292 311.27 28.5292H306.374ZM308.282 21.3292H310.892C311.624 21.3292 312.182 21.1612 312.566 20.8252C312.95 20.4772 313.142 20.0032 313.142 19.4032C313.142 18.8152 312.95 18.3472 312.566 17.9992C312.194 17.6512 311.624 17.4772 310.856 17.4772H308.282V21.3292ZM308.282 26.9632H311.018C311.786 26.9632 312.38 26.7832 312.8 26.4232C313.232 26.0632 313.448 25.5592 313.448 24.9112C313.448 24.2632 313.226 23.7532 312.782 23.3812C312.338 22.9972 311.738 22.8052 310.982 22.8052H308.282V26.9632ZM320.142 28.5292V23.8852L315.966 15.9292H318.126L321.096 22.0132L324.048 15.9292H326.19L322.05 23.8852V28.5292H320.142ZM330.718 28.5292V17.4772H326.992V15.9292H336.334V17.4772H332.626V28.5292H330.718ZM338.12 28.5292V15.9292H346.13V17.4772H340.028V21.4012H345.59V22.9132H340.028V26.9812H346.13V28.5292H338.12ZM352.561 28.7452C351.637 28.7452 350.827 28.5832 350.131 28.2592C349.435 27.9352 348.889 27.4732 348.493 26.8732C348.109 26.2732 347.911 25.5592 347.899 24.7312H349.915C349.927 25.4032 350.161 25.9732 350.617 26.4412C351.073 26.9092 351.715 27.1432 352.543 27.1432C353.275 27.1432 353.845 26.9692 354.253 26.6212C354.673 26.2612 354.883 25.8052 354.883 25.2532C354.883 24.8092 354.781 24.4492 354.577 24.1732C354.385 23.8972 354.115 23.6692 353.767 23.4892C353.431 23.3092 353.041 23.1472 352.597 23.0032C352.153 22.8592 351.685 22.7032 351.193 22.5352C350.221 22.2112 349.489 21.7912 348.997 21.2752C348.517 20.7592 348.277 20.0812 348.277 19.2412C348.265 18.5332 348.427 17.9152 348.763 17.3872C349.111 16.8592 349.591 16.4512 350.203 16.1632C350.827 15.8632 351.553 15.7132 352.381 15.7132C353.197 15.7132 353.911 15.8632 354.523 16.1632C355.147 16.4632 355.633 16.8832 355.981 17.4232C356.329 17.9512 356.509 18.5692 356.521 19.2772H354.505C354.505 18.9532 354.421 18.6472 354.253 18.3592C354.085 18.0592 353.839 17.8132 353.515 17.6212C353.191 17.4292 352.795 17.3332 352.327 17.3332C351.727 17.3212 351.229 17.4712 350.833 17.7832C350.449 18.0952 350.257 18.5272 350.257 19.0792C350.257 19.5712 350.401 19.9492 350.689 20.2132C350.977 20.4772 351.373 20.6992 351.877 20.8792C352.381 21.0472 352.957 21.2452 353.605 21.4732C354.229 21.6772 354.787 21.9232 355.279 22.2112C355.771 22.4992 356.161 22.8772 356.449 23.3452C356.749 23.8132 356.899 24.4072 356.899 25.1272C356.899 25.7632 356.737 26.3572 356.413 26.9092C356.089 27.4492 355.603 27.8932 354.955 28.2412C354.307 28.5772 353.509 28.7452 352.561 28.7452ZM358.337 31.1392V30.9592C359.417 29.8432 360.287 28.5652 360.947 27.1252C361.607 25.6852 361.937 24.1552 361.937 22.5352C361.937 20.9152 361.607 19.3852 360.947 17.9452C360.299 16.5052 359.435 15.2272 358.355 14.1112V13.9312H360.263C360.923 14.5792 361.523 15.3412 362.063 16.2172C362.603 17.0812 363.029 18.0472 363.341 19.1152C363.665 20.1712 363.827 21.3112 363.827 22.5352C363.827 23.7592 363.665 24.9052 363.341 25.9732C363.029 27.0292 362.603 27.9892 362.063 28.8532C361.523 29.7292 360.923 30.4912 360.263 31.1392H358.337Z" fill="#F3D5FE"/>
<path d="M621.98 13.8642C620.732 13.8642 619.64 13.5882 618.704 13.0362C617.768 12.4842 617.036 11.7222 616.508 10.7502C615.98 9.76619 615.716 8.63219 615.716 7.34819C615.716 6.06419 615.98 4.93619 616.508 3.96419C617.036 2.98019 617.768 2.21219 618.704 1.66019C619.64 1.10819 620.732 0.832193 621.98 0.832193C623.228 0.832193 624.32 1.10819 625.256 1.66019C626.192 2.21219 626.918 2.98019 627.434 3.96419C627.962 4.93619 628.226 6.06419 628.226 7.34819C628.226 8.63219 627.962 9.76619 627.434 10.7502C626.918 11.7222 626.192 12.4842 625.256 13.0362C624.32 13.5882 623.228 13.8642 621.98 13.8642ZM621.98 12.1542C622.844 12.1542 623.594 11.9622 624.23 11.5782C624.878 11.1942 625.382 10.6422 625.742 9.92219C626.102 9.20219 626.282 8.34419 626.282 7.34819C626.282 6.35219 626.102 5.49419 625.742 4.77419C625.382 4.05419 624.878 3.50219 624.23 3.11819C623.594 2.73419 622.844 2.54219 621.98 2.54219C621.116 2.54219 620.36 2.73419 619.712 3.11819C619.064 3.50219 618.56 4.05419 618.2 4.77419C617.852 5.49419 617.678 6.35219 617.678 7.34819C617.678 8.34419 617.852 9.20219 618.2 9.92219C618.56 10.6422 619.064 11.1942 619.712 11.5782C620.36 11.9622 621.116 12.1542 621.98 12.1542ZM633.621 13.6482L628.959 1.04819H630.993L634.773 11.6682L638.571 1.04819H640.587L635.925 13.6482H633.621ZM642.199 13.6482V1.04819H650.209V2.59619H644.107V6.52019H649.669V8.03219H644.107V12.1002H650.209V13.6482H642.199ZM652.483 13.6482V1.04819H656.821C657.817 1.04819 658.633 1.21619 659.269 1.55219C659.917 1.88819 660.397 2.34419 660.709 2.92019C661.021 3.48419 661.177 4.11419 661.177 4.81019C661.177 5.59019 660.967 6.29819 660.547 6.93419C660.139 7.57019 659.497 8.02619 658.621 8.30219L661.303 13.6482H659.089L656.641 8.57219H654.391V13.6482H652.483ZM654.391 7.13219H656.713C657.577 7.13219 658.207 6.92219 658.603 6.50219C659.011 6.08219 659.215 5.53619 659.215 4.86419C659.215 4.19219 659.017 3.65819 658.621 3.26219C658.225 2.85419 657.583 2.65019 656.695 2.65019H654.391V7.13219ZM663.434 13.6482V1.04819H671.336V2.59619H665.342V6.57419H670.31V8.10419H665.342V13.6482H663.434ZM673.207 13.6482V1.04819H675.115V12.1362H680.839V13.6482H673.207ZM687.547 13.8642C686.299 13.8642 685.207 13.5882 684.271 13.0362C683.335 12.4842 682.603 11.7222 682.075 10.7502C681.547 9.76619 681.283 8.63219 681.283 7.34819C681.283 6.06419 681.547 4.93619 682.075 3.96419C682.603 2.98019 683.335 2.21219 684.271 1.66019C685.207 1.10819 686.299 0.832193 687.547 0.832193C688.795 0.832193 689.887 1.10819 690.823 1.66019C691.759 2.21219 692.485 2.98019 693.001 3.96419C693.529 4.93619 693.793 6.06419 693.793 7.34819C693.793 8.63219 693.529 9.76619 693.001 10.7502C692.485 11.7222 691.759 12.4842 690.823 13.0362C689.887 13.5882 688.795 13.8642 687.547 13.8642ZM687.547 12.1542C688.411 12.1542 689.161 11.9622 689.797 11.5782C690.445 11.1942 690.949 10.6422 691.309 9.92219C691.669 9.20219 691.849 8.34419 691.849 7.34819C691.849 6.35219 691.669 5.49419 691.309 4.77419C690.949 4.05419 690.445 3.50219 689.797 3.11819C689.161 2.73419 688.411 2.54219 687.547 2.54219C686.683 2.54219 685.927 2.73419 685.279 3.11819C684.631 3.50219 684.127 4.05419 683.767 4.77419C683.419 5.49419 683.245 6.35219 683.245 7.34819C683.245 8.34419 683.419 9.20219 683.767 9.92219C684.127 10.6422 684.631 11.1942 685.279 11.5782C685.927 11.9622 686.683 12.1542 687.547 12.1542ZM697.982 13.6662L694.58 1.04819H696.632L699.134 11.4882L702.014 1.04819H704.12L706.91 11.4882L709.412 1.04819H711.464L708.008 13.6482H705.776L703.022 3.76619L700.178 13.6482L697.982 13.6662ZM627.138 37.2582C626.466 36.6102 625.86 35.8482 625.32 34.9722C624.792 34.1082 624.366 33.1482 624.042 32.0922C623.73 31.0242 623.574 29.8782 623.574 28.6542C623.574 27.4302 623.73 26.2902 624.042 25.2342C624.366 24.1662 624.792 23.2002 625.32 22.3362C625.86 21.4602 626.466 20.6982 627.138 20.0502H629.046V20.2302C627.966 21.3462 627.096 22.6242 626.436 24.0642C625.788 25.5042 625.464 27.0342 625.464 28.6542C625.464 30.2742 625.788 31.8042 626.436 33.2442C627.096 34.6842 627.972 35.9622 629.064 37.0782V37.2582H627.138ZM630.715 34.6482V33.2802C631.531 32.6322 632.311 31.9782 633.055 31.3182C633.799 30.6582 634.459 30.0102 635.035 29.3742C635.623 28.7262 636.085 28.0962 636.421 27.4842C636.757 26.8602 636.925 26.2602 636.925 25.6842C636.925 25.3002 636.859 24.9402 636.727 24.6042C636.595 24.2562 636.379 23.9802 636.079 23.7762C635.779 23.5602 635.377 23.4522 634.873 23.4522C634.117 23.4522 633.547 23.6922 633.163 24.1722C632.791 24.6522 632.611 25.2282 632.623 25.9002H630.769C630.781 25.0122 630.967 24.2682 631.327 23.6682C631.699 23.0682 632.191 22.6122 632.803 22.3002C633.427 21.9882 634.129 21.8322 634.909 21.8322C636.097 21.8322 637.045 22.1682 637.753 22.8402C638.473 23.5002 638.833 24.4242 638.833 25.6122C638.833 26.3202 638.659 27.0222 638.311 27.7182C637.975 28.4142 637.531 29.0862 636.979 29.7342C636.439 30.3702 635.857 30.9702 635.233 31.5342C634.609 32.0982 634.015 32.6082 633.451 33.0642H639.211V34.6482H630.715ZM645.803 34.6482V22.0482H650.555C651.863 22.0482 652.853 22.3542 653.525 22.9662C654.197 23.5782 654.533 24.3462 654.533 25.2702C654.533 26.0742 654.317 26.7162 653.885 27.1962C653.453 27.6642 652.931 27.9822 652.319 28.1502C652.799 28.2462 653.225 28.4382 653.597 28.7262C653.981 29.0142 654.281 29.3742 654.497 29.8062C654.713 30.2382 654.821 30.7062 654.821 31.2102C654.821 31.8582 654.659 32.4462 654.335 32.9742C654.023 33.4902 653.561 33.8982 652.949 34.1982C652.337 34.4982 651.587 34.6482 650.699 34.6482H645.803ZM647.711 27.4482H650.321C651.053 27.4482 651.611 27.2802 651.995 26.9442C652.379 26.5962 652.571 26.1222 652.571 25.5222C652.571 24.9342 652.379 24.4662 651.995 24.1182C651.623 23.7702 651.053 23.5962 650.285 23.5962H647.711V27.4482ZM647.711 33.0822H650.447C651.215 33.0822 651.809 32.9022 652.229 32.5422C652.661 32.1822 652.877 31.6782 652.877 31.0302C652.877 30.3822 652.655 29.8722 652.211 29.5002C651.767 29.1162 651.167 28.9242 650.411 28.9242H647.711V33.0822ZM659.571 34.6482V30.0042L655.395 22.0482H657.555L660.525 28.1322L663.477 22.0482H665.619L661.479 30.0042V34.6482H659.571ZM670.147 34.6482V23.5962H666.421V22.0482H675.763V23.5962H672.055V34.6482H670.147ZM677.549 34.6482V22.0482H685.559V23.5962H679.457V27.5202H685.019V29.0322H679.457V33.1002H685.559V34.6482H677.549ZM691.99 34.8642C691.066 34.8642 690.256 34.7022 689.56 34.3782C688.864 34.0542 688.318 33.5922 687.922 32.9922C687.538 32.3922 687.34 31.6782 687.328 30.8502H689.344C689.356 31.5222 689.59 32.0922 690.046 32.5602C690.502 33.0282 691.144 33.2622 691.972 33.2622C692.704 33.2622 693.274 33.0882 693.682 32.7402C694.102 32.3802 694.312 31.9242 694.312 31.3722C694.312 30.9282 694.21 30.5682 694.006 30.2922C693.814 30.0162 693.544 29.7882 693.196 29.6082C692.86 29.4282 692.47 29.2662 692.026 29.1222C691.582 28.9782 691.114 28.8222 690.622 28.6542C689.65 28.3302 688.918 27.9102 688.426 27.3942C687.946 26.8782 687.706 26.2002 687.706 25.3602C687.694 24.6522 687.856 24.0342 688.192 23.5062C688.54 22.9782 689.02 22.5702 689.632 22.2822C690.256 21.9822 690.982 21.8322 691.81 21.8322C692.626 21.8322 693.34 21.9822 693.952 22.2822C694.576 22.5822 695.062 23.0022 695.41 23.5422C695.758 24.0702 695.938 24.6882 695.95 25.3962H693.934C693.934 25.0722 693.85 24.7662 693.682 24.4782C693.514 24.1782 693.268 23.9322 692.944 23.7402C692.62 23.5482 692.224 23.4522 691.756 23.4522C691.156 23.4402 690.658 23.5902 690.262 23.9022C689.878 24.2142 689.686 24.6462 689.686 25.1982C689.686 25.6902 689.83 26.0682 690.118 26.3322C690.406 26.5962 690.802 26.8182 691.306 26.9982C691.81 27.1662 692.386 27.3642 693.034 27.5922C693.658 27.7962 694.216 28.0422 694.708 28.3302C695.2 28.6182 695.59 28.9962 695.878 29.4642C696.178 29.9322 696.328 30.5262 696.328 31.2462C696.328 31.8822 696.166 32.4762 695.842 33.0282C695.518 33.5682 695.032 34.0122 694.384 34.3602C693.736 34.6962 692.938 34.8642 691.99 34.8642ZM697.766 37.2582V37.0782C698.846 35.9622 699.716 34.6842 700.376 33.2442C701.036 31.8042 701.366 30.2742 701.366 28.6542C701.366 27.0342 701.036 25.5042 700.376 24.0642C699.728 22.6242 698.864 21.3462 697.784 20.2302V20.0502H699.692C700.352 20.6982 700.952 21.4602 701.492 22.3362C702.032 23.2002 702.458 24.1662 702.77 25.2342C703.094 26.2902 703.256 27.4302 703.256 28.6542C703.256 29.8782 703.094 31.0242 702.77 32.0922C702.458 33.1482 702.032 34.1082 701.492 34.9722C700.952 35.8482 700.352 36.6102 699.692 37.2582H697.766Z" fill="#FFCFA3"/>
<path fill-rule="evenodd" clip-rule="evenodd" d="M5.16534 23.9462H205.422V19.9462H1.16534V19.995V23.9462V38.1239H5.16534L5.16534 23.9462Z" fill="#F3D5FE"/>
<path fill-rule="evenodd" clip-rule="evenodd" d="M574.282 23.9462H374.587V19.9462H578.282V19.995V23.9462V38.1239H574.282L574.282 23.9462Z" fill="#F3D5FE"/>
</svg>
